<svg width="129" height="26" fill="none" xmlns="http://www.w3.org/2000/svg"><path d="M35 10.09h3.539c.888 0 1.675.163 2.363.491.688.328 1.22.79 1.596 1.386.384.588.576 1.266.576 2.033 0 .767-.192 1.449-.576 2.045-.376.588-.908 1.046-1.596 1.374-.688.328-1.475.492-2.363.492H35v-7.822zm3.467 6.849c.68 0 1.276-.123 1.787-.37.52-.245.92-.588 1.2-1.027.28-.447.42-.961.42-1.542 0-.581-.14-1.091-.42-1.53a2.772 2.772 0 00-1.2-1.04c-.511-.246-1.107-.368-1.787-.368H36.2v5.877h2.267zm12.397-.984h-4.463l-.923 1.956h-1.236l3.803-7.822h1.188l3.814 7.822h-1.26l-.923-1.956zm-.42-.893l-1.811-3.833-1.812 3.833h3.623zm11.798-4.972v7.82h-.984l-5.039-5.832v5.833h-1.2v-7.822h.985l5.038 5.833v-5.833h1.2zM69.23 18c-.84 0-1.6-.171-2.28-.514a4.054 4.054 0 01-1.583-1.43A3.783 3.783 0 0164.79 14c0-.76.192-1.441.576-2.045a3.926 3.926 0 011.595-1.43c.68-.35 1.44-.525 2.28-.525.655 0 1.255.104 1.8.313a3.64 3.64 0 011.39.905l-.78.704c-.63-.619-1.419-.928-2.362-.928-.624 0-1.188.13-1.692.392-.504.26-.9.621-1.188 1.083A2.86 2.86 0 0065.99 14c0 .566.14 1.08.42 1.542a3.01 3.01 0 001.188 1.072 3.624 3.624 0 001.692.392c.935 0 1.723-.313 2.363-.939l.78.704a3.734 3.734 0 01-1.404.916 4.988 4.988 0 01-1.8.313zm11.728-1.061v.972h-6.094v-7.822h5.926v.973h-4.727v2.402h4.211v.95h-4.21v2.525h4.894zM87.34 18c-.84 0-1.6-.171-2.28-.514a4.055 4.055 0 01-1.583-1.43A3.784 3.784 0 0182.901 14c0-.76.192-1.441.576-2.045a3.927 3.927 0 011.596-1.43c.68-.35 1.44-.525 2.279-.525.656 0 1.255.104 1.8.313a3.64 3.64 0 011.39.905l-.779.704c-.632-.619-1.42-.928-2.363-.928-.624 0-1.188.13-1.692.392-.504.26-.9.621-1.187 1.083A2.86 2.86 0 0084.1 14c0 .566.14 1.08.42 1.542.288.454.683.812 1.187 1.072a3.624 3.624 0 001.692.392c.935 0 1.723-.313 2.363-.939l.78.704a3.734 3.734 0 01-1.404.916 4.988 4.988 0 01-1.8.313zm9.25 0c-.849 0-1.612-.171-2.292-.514a4.094 4.094 0 01-1.608-1.441A3.764 3.764 0 0192.115 14c0-.752.191-1.434.575-2.045a4.013 4.013 0 011.608-1.43c.68-.35 1.443-.525 2.291-.525.84 0 1.6.175 2.28.525.68.343 1.211.82 1.595 1.43.384.604.576 1.285.576 2.045s-.192 1.445-.576 2.056a4.036 4.036 0 01-1.596 1.43c-.68.343-1.44.514-2.279.514zm0-.994c.615 0 1.167-.13 1.655-.392.495-.26.883-.618 1.163-1.072.288-.462.432-.976.432-1.542a2.8 2.8 0 00-.432-1.53 2.918 2.918 0 00-1.163-1.085c-.488-.26-1.04-.39-1.656-.39a3.6 3.6 0 00-1.68.39 3.01 3.01 0 00-1.175 1.084 2.86 2.86 0 00-.42 1.531c0 .566.14 1.08.42 1.542.288.454.68.812 1.176 1.072a3.6 3.6 0 001.68.392zm7.003-6.916h1.2v6.849h4.546v.972h-5.746v-7.822zM115.074 18c-.848 0-1.611-.171-2.291-.514a4.095 4.095 0 01-1.608-1.441A3.762 3.762 0 01110.6 14c0-.752.191-1.434.575-2.045a4.014 4.014 0 011.608-1.43c.68-.35 1.443-.525 2.291-.525.84 0 1.6.175 2.279.525.68.343 1.212.82 1.596 1.43.384.604.576 1.285.576 2.045s-.192 1.445-.576 2.056a4.036 4.036 0 01-1.596 1.43c-.679.343-1.439.514-2.279.514zm0-.994c.616 0 1.168-.13 1.656-.392.496-.26.883-.618 1.163-1.072.288-.462.432-.976.432-1.542 0-.566-.144-1.076-.432-1.53a2.916 2.916 0 00-1.163-1.085c-.488-.26-1.04-.39-1.656-.39-.616 0-1.175.13-1.679.39a3.007 3.007 0 00-1.176 1.084c-.28.455-.42.965-.42 1.531s.14 1.08.42 1.542c.288.454.68.812 1.176 1.072a3.594 3.594 0 001.679.392zm12.618.904l-1.811-2.402c-.224.015-.4.023-.528.023h-2.075v2.38h-1.2v-7.822h3.275c1.088 0 1.944.242 2.567.727.624.484.936 1.15.936 2 0 .603-.16 1.117-.48 1.541-.32.425-.776.734-1.367.928L129 17.91h-1.308zm-2.375-3.329c.76 0 1.34-.153 1.74-.458.399-.305.599-.741.599-1.307 0-.567-.2-.998-.599-1.296-.4-.306-.98-.458-1.74-.458h-2.039v3.519h2.039z" fill="#2D2A3A"/><mask id="a" fill="#fff"><path fill-rule="evenodd" clip-rule="evenodd" d="M24.64 13A8.412 8.412 0 0013 1.36 8.412 8.412 0 001.36 13 8.412 8.412 0 0013 24.64 8.412 8.412 0 0024.64 13z"/></mask><path d="M24.64 13l-1.257-.82-.534.82.534.82L24.64 13zM13 1.36l-.82 1.257.82.534.82-.534L13 1.36zM1.36 13l1.257.82.534-.82-.534-.82L1.36 13zM13 24.64l.82-1.257-.82-.534-.82.534.82 1.257zM24.5 8.412c0 1.393-.41 2.686-1.117 3.769l2.513 1.638A9.873 9.873 0 0027.5 8.412h-3zM17.588 1.5A6.912 6.912 0 0124.5 8.412h3c0-5.474-4.438-9.912-9.912-9.912v3zM13.82 2.617A6.872 6.872 0 0117.59 1.5v-3c-1.993 0-3.852.59-5.408 1.604l1.638 2.513zM8.412 1.5c1.393 0 2.685.41 3.769 1.117L13.819.104A9.873 9.873 0 008.412-1.5v3zM1.5 8.412A6.912 6.912 0 018.412 1.5v-3C2.938-1.5-1.5 2.938-1.5 8.412h3zm1.117 3.769A6.872 6.872 0 011.5 8.41h-3c0 1.993.59 3.852 1.604 5.408l2.513-1.638zM1.5 17.588c0-1.393.41-2.686 1.117-3.769L.104 12.181A9.872 9.872 0 00-1.5 17.588h3zM8.412 24.5A6.912 6.912 0 011.5 17.588h-3c0 5.474 4.438 9.912 9.912 9.912v-3zm3.769-1.117A6.872 6.872 0 018.41 24.5v3c1.993 0 3.852-.59 5.408-1.604l-1.638-2.513zm5.407 1.117a6.872 6.872 0 01-3.769-1.117l-1.638 2.513a9.872 9.872 0 005.407 1.604v-3zm6.912-6.912a6.912 6.912 0 01-6.912 6.912v3c5.474 0 9.912-4.438 9.912-9.912h-3zm-1.117-3.769a6.873 6.873 0 011.117 3.77h3c0-1.993-.59-3.852-1.604-5.408l-2.513 1.638z" fill="#83AB29" mask="url(#a)"/></svg>