<svg width="28" height="23" fill="none" xmlns="http://www.w3.org/2000/svg"><path d="M0 3h20v20H0z"/><path d="M19 7h-4.333V5.667A1.669 1.669 0 0013 4H7a1.669 1.669 0 00-1.667 1.667V7H1a1 1 0 00-1 1v7.42c.002.423.269.799.667.941V21a1 1 0 001 1h16.666a1 1 0 001-1v-4.639c.398-.142.665-.518.667-.941V8a1 1 0 00-1-1zM6 5.667a1 1 0 011-1h6a1 1 0 011 1V7h-.667V5.667A.333.333 0 0013 5.333H7a.333.333 0 00-.333.334V7H6V5.667zM12.667 7H7.333V6h5.334v1zm6 14c0 .184-.15.333-.334.333H1.667A.333.333 0 011.333 21v-4.524l7.334 1.011v.846a1 1 0 001 1h.666a1 1 0 001-1v-.846l7.334-1.011V21zm-8-2.667c0 .184-.15.334-.334.334h-.666a.333.333 0 01-.334-.334v-2c0-.184.15-.333.334-.333h.666c.184 0 .334.15.334.333v2zm8.666-2.913a.333.333 0 01-.286.33l-.093.013-7.62 1.051v-.48a1 1 0 00-1-1h-.667a1 1 0 00-1 1v.48L.954 15.75a.333.333 0 01-.287-.33V8c0-.184.149-.333.333-.333h18c.184 0 .333.149.333.333v7.42z" fill="#BD0D22"/></svg>