<svg width="28" height="20" viewBox="0 0 20 20" fill="none" xmlns="http://www.w3.org/2000/svg"><path d="M18.47 6.797l-4.086-1.549a3.862 3.862 0 00-.512-3.585A4.002 4.002 0 0012.436.44a4.098 4.098 0 00-3.7 0A4.002 4.002 0 007.3 1.663a3.86 3.86 0 00-.512 3.585l-4.086 1.55a.438.438 0 00-.204.157.424.424 0 00-.076.243v9.274a.429.429 0 00.28.401l7.725 2.93a.45.45 0 00.159.03.443.443 0 00.157-.033l.002.003 7.725-2.93a.438.438 0 00.204-.158.424.424 0 00.076-.243V7.198a.424.424 0 00-.077-.243.438.438 0 00-.203-.158zm-1.375.401l-1.426.54-2.364-.89c.27-.241.504-.518.697-.823l3.093 1.173zm-4.654.247l2.01.757-1.135.43-2.082-.796a4.06 4.06 0 001.207-.39zm1.368 1.922l1.476-.56V10.6l-.247-.158a.448.448 0 00-.56.065l-.67.696V9.367zM10.586.871c.623 0 1.231.18 1.749.52a3.1 3.1 0 011.159 1.382c.238.562.3 1.182.179 1.78a3.06 3.06 0 01-.861 1.576 3.17 3.17 0 01-1.612.843 3.212 3.212 0 01-1.819-.175A3.134 3.134 0 017.97 5.662a3.033 3.033 0 01-.53-1.71c0-.817.332-1.6.922-2.178a3.186 3.186 0 012.225-.903zM7.42 6.377l-.589-.224.337-.128c.078.122.161.24.252.353zm-1.801.235l6.482 2.48-1.516.575-6.509-2.469 1.543-.586zM3.3 16.177v-8.35l6.845 2.596v8.351L3.3 16.177zm7.724 2.597v-8.35L12.93 9.7v2.587c0 .086.027.17.076.241a.439.439 0 00.364.189.449.449 0 00.32-.135l1.177-1.223.619.393a.445.445 0 00.616-.14.423.423 0 00.062-.22V8.474l1.708-.648v8.351l-6.845 2.597z" fill="#303136"/><path d="M9.803 5.217a.446.446 0 00.578-.008l2.132-1.875a.433.433 0 00.155-.3.422.422 0 00-.111-.317.44.44 0 00-.312-.143.448.448 0 00-.32.12L10.078 4.32l-.841-.695a.446.446 0 00-.62.05.424.424 0 00.052.607l1.134.936z" fill="#303136"/></svg>