<svg width="129" height="26" viewBox="0 0 129 26" fill="none" xmlns="http://www.w3.org/2000/svg">
<path d="M35 10.0894H38.5389C39.4266 10.0894 40.2144 10.2533 40.9022 10.581C41.59 10.9088 42.1218 11.3706 42.4977 11.9665C42.8816 12.5549 43.0735 13.2328 43.0735 14C43.0735 14.7672 42.8816 15.4488 42.4977 16.0447C42.1218 16.6331 41.59 17.0912 40.9022 17.419C40.2144 17.7467 39.4266 17.9106 38.5389 17.9106H35V10.0894ZM38.4669 16.9385C39.1467 16.9385 39.7425 16.8156 40.2544 16.5698C40.7742 16.324 41.1741 15.9814 41.454 15.5419C41.7339 15.095 41.8739 14.581 41.8739 14C41.8739 13.419 41.7339 12.9088 41.454 12.4693C41.1741 12.0223 40.7742 11.676 40.2544 11.4302C39.7425 11.1844 39.1467 11.0615 38.4669 11.0615H36.1996V16.9385H38.4669Z" fill="#2D2A3A"/>
<path d="M50.864 15.9553H46.4014L45.4776 17.9106H44.242L48.0449 10.0894H49.2325L53.0473 17.9106H51.7877L50.864 15.9553ZM50.4441 15.0615L48.6327 11.229L46.8212 15.0615H50.4441Z" fill="#2D2A3A"/>
<path d="M62.2415 10.0894V17.9106H61.2578L56.2194 12.0782V17.9106H55.0198V10.0894H56.0035L61.0419 15.9218V10.0894H62.2415Z" fill="#2D2A3A"/>
<path d="M69.2297 18C68.3899 18 67.6302 17.8287 66.9504 17.486C66.2786 17.1359 65.7507 16.6592 65.3669 16.0559C64.983 15.4451 64.791 14.7598 64.791 14C64.791 13.2402 64.983 12.5587 65.3669 11.9553C65.7507 11.3445 66.2826 10.8678 66.9624 10.5251C67.6422 10.175 68.4019 10 69.2417 10C69.8975 10 70.4973 10.1043 71.0411 10.3128C71.5849 10.514 72.0488 10.8156 72.4327 11.2179L71.6529 11.9218C71.0211 11.3035 70.2334 10.9944 69.2896 10.9944C68.6658 10.9944 68.102 11.1248 67.5982 11.3855C67.0943 11.6462 66.6984 12.0074 66.4105 12.4693C66.1306 12.9236 65.9907 13.4339 65.9907 14C65.9907 14.5661 66.1306 15.0801 66.4105 15.5419C66.6984 15.9963 67.0943 16.3538 67.5982 16.6145C68.102 16.8752 68.6658 17.0056 69.2896 17.0056C70.2254 17.0056 71.0131 16.6927 71.6529 16.067L72.4327 16.7709C72.0488 17.1732 71.5809 17.4786 71.0291 17.6872C70.4853 17.8957 69.8855 18 69.2297 18Z" fill="#2D2A3A"/>
<path d="M80.9579 16.9385V17.9106H74.8638V10.0894H80.79V11.0615H76.0634V13.4637H80.2741V14.4134H76.0634V16.9385H80.9579Z" fill="#2D2A3A"/>
<path d="M87.3399 18C86.5001 18 85.7403 17.8287 85.0606 17.486C84.3888 17.1359 83.8609 16.6592 83.477 16.0559C83.0932 15.4451 82.9012 14.7598 82.9012 14C82.9012 13.2402 83.0932 12.5587 83.477 11.9553C83.8609 11.3445 84.3928 10.8678 85.0726 10.5251C85.7523 10.175 86.5121 10 87.3518 10C88.0076 10 88.6075 10.1043 89.1513 10.3128C89.6951 10.514 90.159 10.8156 90.5429 11.2179L89.7631 11.9218C89.1313 11.3035 88.3435 10.9944 87.3998 10.9944C86.776 10.9944 86.2122 11.1248 85.7084 11.3855C85.2045 11.6462 84.8086 12.0074 84.5207 12.4693C84.2408 12.9236 84.1009 13.4339 84.1009 14C84.1009 14.5661 84.2408 15.0801 84.5207 15.5419C84.8086 15.9963 85.2045 16.3538 85.7084 16.6145C86.2122 16.8752 86.776 17.0056 87.3998 17.0056C88.3355 17.0056 89.1233 16.6927 89.7631 16.067L90.5429 16.7709C90.159 17.1732 89.6911 17.4786 89.1393 17.6872C88.5955 17.8957 87.9957 18 87.3399 18Z" fill="#2D2A3A"/>
<path d="M96.5891 18C95.7414 18 94.9776 17.8287 94.2978 17.486C93.618 17.1359 93.0822 16.6555 92.6903 16.0447C92.3064 15.4339 92.1145 14.7523 92.1145 14C92.1145 13.2477 92.3064 12.5661 92.6903 11.9553C93.0822 11.3445 93.618 10.8678 94.2978 10.5251C94.9776 10.175 95.7414 10 96.5891 10C97.4288 10 98.1886 10.175 98.8684 10.5251C99.5482 10.8678 100.08 11.3445 100.464 11.9553C100.848 12.5587 101.04 13.2402 101.04 14C101.04 14.7598 100.848 15.4451 100.464 16.0559C100.08 16.6592 99.5482 17.1359 98.8684 17.486C98.1886 17.8287 97.4288 18 96.5891 18ZM96.5891 17.0056C97.2049 17.0056 97.7567 16.8752 98.2446 16.6145C98.7404 16.3538 99.1283 15.9963 99.4082 15.5419C99.6961 15.0801 99.8401 14.5661 99.8401 14C99.8401 13.4339 99.6961 12.9236 99.4082 12.4693C99.1283 12.0074 98.7404 11.6462 98.2446 11.3855C97.7567 11.1248 97.2049 10.9944 96.5891 10.9944C95.9733 10.9944 95.4135 11.1248 94.9096 11.3855C94.4138 11.6462 94.0219 12.0074 93.734 12.4693C93.4541 12.9236 93.3141 13.4339 93.3141 14C93.3141 14.5661 93.4541 15.0801 93.734 15.5419C94.0219 15.9963 94.4138 16.3538 94.9096 16.6145C95.4135 16.8752 95.9733 17.0056 96.5891 17.0056Z" fill="#2D2A3A"/>
<path d="M103.593 10.0894H104.793V16.9385H109.339V17.9106H103.593V10.0894Z" fill="#2D2A3A"/>
<path d="M115.074 18C114.226 18 113.463 17.8287 112.783 17.486C112.103 17.1359 111.567 16.6555 111.175 16.0447C110.791 15.4339 110.6 14.7523 110.6 14C110.6 13.2477 110.791 12.5661 111.175 11.9553C111.567 11.3445 112.103 10.8678 112.783 10.5251C113.463 10.175 114.226 10 115.074 10C115.914 10 116.674 10.175 117.353 10.5251C118.033 10.8678 118.565 11.3445 118.949 11.9553C119.333 12.5587 119.525 13.2402 119.525 14C119.525 14.7598 119.333 15.4451 118.949 16.0559C118.565 16.6592 118.033 17.1359 117.353 17.486C116.674 17.8287 115.914 18 115.074 18ZM115.074 17.0056C115.69 17.0056 116.242 16.8752 116.73 16.6145C117.226 16.3538 117.613 15.9963 117.893 15.5419C118.181 15.0801 118.325 14.5661 118.325 14C118.325 13.4339 118.181 12.9236 117.893 12.4693C117.613 12.0074 117.226 11.6462 116.73 11.3855C116.242 11.1248 115.69 10.9944 115.074 10.9944C114.458 10.9944 113.899 11.1248 113.395 11.3855C112.899 11.6462 112.507 12.0074 112.219 12.4693C111.939 12.9236 111.799 13.4339 111.799 14C111.799 14.5661 111.939 15.0801 112.219 15.5419C112.507 15.9963 112.899 16.3538 113.395 16.6145C113.899 16.8752 114.458 17.0056 115.074 17.0056Z" fill="#2D2A3A"/>
<path d="M127.692 17.9106L125.881 15.5084C125.657 15.5233 125.481 15.5307 125.353 15.5307H123.278V17.9106H122.078V10.0894H125.353C126.441 10.0894 127.297 10.3315 127.92 10.8156C128.544 11.2998 128.856 11.9665 128.856 12.8156C128.856 13.419 128.696 13.933 128.376 14.3575C128.056 14.7821 127.6 15.0912 127.009 15.2849L129 17.9106H127.692ZM125.317 14.581C126.077 14.581 126.657 14.4283 127.057 14.1229C127.456 13.8175 127.656 13.3818 127.656 12.8156C127.656 12.2495 127.456 11.8175 127.057 11.5196C126.657 11.2142 126.077 11.0615 125.317 11.0615H123.278V14.581H125.317Z" fill="#2D2A3A"/>
<mask id="path-2-inside-1" fill="white">
<path fill-rule="evenodd" clip-rule="evenodd" d="M24.6396 13.0001C25.5 11.6806 26 10.1046 26 8.41181C26 3.7661 22.2339 0 17.5882 0C15.8955 0 14.3195 0.499994 13 1.36035C11.6805 0.499994 10.1045 0 8.41178 0C3.76608 0 0 3.7661 0 8.41181C0 10.1045 0.499966 11.6804 1.36028 12.9999C0.499966 14.3195 0 15.8954 0 17.5881C0 22.2338 3.76608 25.9999 8.41178 25.9999C10.1045 25.9999 11.6804 25.4999 12.9999 24.6396C14.3194 25.4999 15.8953 25.9999 17.588 25.9999C22.2337 25.9999 25.9997 22.2338 25.9997 17.5881C25.9997 15.8955 25.4998 14.3196 24.6396 13.0001Z"/>
</mask>
<path d="M24.6396 13.0001L23.3831 12.1809L22.8489 13.0001L23.383 13.8193L24.6396 13.0001ZM13 1.36035L12.1807 2.61686L13 3.15103L13.8193 2.61686L13 1.36035ZM1.36028 12.9999L2.6168 13.8192L3.15094 12.9999L2.6168 12.1807L1.36028 12.9999ZM12.9999 24.6396L13.8191 23.3831L12.9999 22.849L12.1806 23.3831L12.9999 24.6396ZM24.5 8.41181C24.5 9.80493 24.0894 11.0976 23.3831 12.1809L25.8961 13.8194C26.9105 12.2636 27.5 10.4042 27.5 8.41181H24.5ZM17.5882 1.5C21.4055 1.5 24.5 4.59452 24.5 8.41181H27.5C27.5 2.93767 23.0623 -1.5 17.5882 -1.5V1.5ZM13.8193 2.61686C14.9025 1.91056 16.1951 1.5 17.5882 1.5V-1.5C15.5958 -1.5 13.7366 -0.910573 12.1807 0.103843L13.8193 2.61686ZM8.41178 1.5C9.80486 1.5 11.0975 1.91056 12.1807 2.61686L13.8193 0.103843C12.2634 -0.910573 10.4042 -1.5 8.41178 -1.5V1.5ZM1.5 8.41181C1.5 4.59452 4.59451 1.5 8.41178 1.5V-1.5C2.93765 -1.5 -1.5 2.93767 -1.5 8.41181H1.5ZM2.6168 12.1807C1.91054 11.0975 1.5 9.80486 1.5 8.41181H-1.5C-1.5 10.4041 -0.910607 12.2634 0.103757 13.8192L2.6168 12.1807ZM1.5 17.5881C1.5 16.195 1.91054 14.9024 2.6168 13.8192L0.103757 12.1807C-0.910607 13.7365 -1.5 15.5957 -1.5 17.5881H1.5ZM8.41178 24.4999C4.59451 24.4999 1.5 21.4054 1.5 17.5881H-1.5C-1.5 23.0622 2.93765 27.4999 8.41178 27.4999V24.4999ZM12.1806 23.3831C11.0974 24.0894 9.80482 24.4999 8.41178 24.4999V27.4999C10.4041 27.4999 12.2633 26.9105 13.8191 25.8961L12.1806 23.3831ZM17.588 24.4999C16.1949 24.4999 14.9023 24.0894 13.8191 23.3831L12.1806 25.8961C13.7364 26.9105 15.5957 27.4999 17.588 27.4999V24.4999ZM24.4997 17.5881C24.4997 21.4054 21.4052 24.4999 17.588 24.4999V27.4999C23.0621 27.4999 27.4997 23.0622 27.4997 17.5881H24.4997ZM23.383 13.8193C24.0892 14.9026 24.4997 16.1951 24.4997 17.5881H27.4997C27.4997 15.5958 26.9104 13.7367 25.8961 12.1809L23.383 13.8193Z" fill="#83AB29" mask="url(#path-2-inside-1)"/>
</svg>
