<svg width="28" height="23" viewBox="0 0 28 23" fill="none" xmlns="http://www.w3.org/2000/svg">
<rect width="20" height="20" transform="translate(0 3)"/>
<path d="M19 7H14.6667V5.66667C14.6655 4.74658 13.9201 4.00114 13 4H7C6.07992 4.00114 5.33447 4.74658 5.33333 5.66667V7H1C0.447754 7 0 7.44775 0 8V15.4199C0.00211588 15.8428 0.268555 16.2189 0.666667 16.361V21C0.666667 21.5522 1.11442 22 1.66667 22H18.3333C18.8856 22 19.3333 21.5522 19.3333 21V16.3613C19.7314 16.2191 19.998 15.8428 20 15.4199V8C20 7.44775 19.5522 7 19 7ZM6 5.66667C6 5.11442 6.44775 4.66667 7 4.66667H13C13.5522 4.66667 14 5.11442 14 5.66667V7H13.3333V5.66667C13.3333 5.48258 13.1841 5.33333 13 5.33333H7C6.81592 5.33333 6.66667 5.48258 6.66667 5.66667V7H6V5.66667ZM12.6667 7H7.33333V6H12.6667V7ZM18.6667 21C18.6667 21.1841 18.5174 21.3333 18.3333 21.3333H1.66667C1.48258 21.3333 1.33333 21.1841 1.33333 21V16.4756L8.66667 17.487V18.3333C8.66667 18.8856 9.11442 19.3333 9.66667 19.3333H10.3333C10.8856 19.3333 11.3333 18.8856 11.3333 18.3333V17.487L18.6667 16.4756V21ZM10.6667 18.3333C10.6667 18.5174 10.5174 18.6667 10.3333 18.6667H9.66667C9.48258 18.6667 9.33333 18.5174 9.33333 18.3333V16.3333C9.33333 16.1493 9.48258 16 9.66667 16H10.3333C10.5174 16 10.6667 16.1493 10.6667 16.3333V18.3333ZM19.3333 15.4199C19.3335 15.5861 19.2113 15.7271 19.0467 15.7503L18.9543 15.763L11.3333 16.814V16.3333C11.3333 15.7811 10.8856 15.3333 10.3333 15.3333H9.66667C9.11442 15.3333 8.66667 15.7811 8.66667 16.3333V16.814L0.953613 15.7503C0.789062 15.7272 0.666504 15.5863 0.666667 15.4199V8C0.666667 7.81592 0.815918 7.66667 1 7.66667H19C19.1841 7.66667 19.3333 7.81592 19.3333 8V15.4199Z" fill="#BD0D22"/>
</svg>
