<svg version="1.0" xmlns="http://www.w3.org/2000/svg" width="1733.333" height="1733.333" viewBox="0 0 1300 1300"><path d="M395.8.5c-.1.1-4.4.6-9.5.9-5 .4-10.2.9-11.5 1.1-1.3.2-4.8.6-7.8.9-4.7.6-18.7 2.8-25.5 4.1-59.1 11.3-114.4 34.9-164 69.9-11.7 8.3-11 7.8-15.5 11.5-1.9 1.6-7.8 6.4-13 10.7-13.8 11.4-40.8 38.5-52 52.4-2.5 3-4.7 5.7-5 6-.3.3-3.6 4.5-7.3 9.5-3.7 4.9-7 9.4-7.5 10-2.7 3.4-15 22.7-20.7 32.4-8.6 14.8-20.8 39.9-26.6 54.6C21.3 286.6 12 317 9.5 331.1 9.2 333 8 339 7 344.5c-2.2 12.1-2.8 15.5-3.5 22-.3 2.7-.8 5.9-1 7C.6 383.1-.2 438 1.4 455c2.4 26.3 5.8 46.2 11.9 70.5 10.3 40.6 28.5 82.9 50.7 118.2l4 6.3-6.7 10.7c-6.3 10.3-21.4 39.1-26 49.8-6.8 15.9-9.4 22.9-15.4 41-3.2 9.6-9.4 32.9-10.4 38.6-.3 1.9-.8 4.1-1 4.9-.2.8-.7 3.1-1 5-.3 1.9-.8 4.2-1 5-.2.8-.7 3.5-1 6-.3 2.5-.8 5.6-1 7-.2 1.4-.7 5-1 8-.4 3-.9 6.3-1.1 7.3-2.5 13.8-2.5 74.6.1 92.2.2 1.6.7 5.2 1 8 3.5 31.1 14.8 73.9 28 106 5.2 12.8 20.1 42.5 27 54 20.7 34.2 37.2 55.2 65.5 83.5 16.6 16.6 26.8 25.7 39.5 35.2.6.4 2.4 1.8 4 3.1 4.5 3.6 18.9 13.6 28.3 19.6 40.5 25.8 90.2 46.1 135.7 55.6 4.4.9 8.9 1.9 10 2.1 2.2.5 13.5 2.4 17.5 2.9 1.4.2 5.2.7 8.5 1 3.3.4 6.7.8 7.5 1 9.5 2.5 77.2 2.6 90.7.1 1.5-.3 6.1-.9 16.3-2.1 24.1-2.8 67.9-14.6 95-25.6 3-1.2 6.4-2.5 7.5-3 4.6-1.8 38.2-18.2 41-20 1.7-1 7.9-4.8 13.8-8.4l10.8-6.4 10.5 6.5c13.3 8.2 31.9 18 45.4 23.9 5.8 2.5 11.4 5 12.5 5.5 1.1.5 4.5 1.9 7.5 3 3 1.2 6.4 2.6 7.5 3 9.7 4.1 44.8 14.2 56.5 16.4 1.4.2 4.5.9 7 1.4 2.5.6 6.3 1.3 8.5 1.6 2.2.3 5.3.9 6.8 1.2 3.2.7 4.5.8 13.2 1.9 3.3.3 7.1.8 8.5 1.1 15.6 2.5 78.7 2.5 91.5-.1 1.1-.3 4.5-.7 7.6-1 3.1-.3 9.6-1.2 14.5-2 11.7-2.1 11.7-2.1 20.4-4 4.1-.9 8.6-1.8 10-2.1 2.1-.4 6.7-1.6 11.5-3 .6-.2 2.6-.7 4.5-1.3 12.2-3.3 35.5-11.3 42.8-14.6 2.9-1.4 5.7-2.5 6.2-2.5.6 0 1.8-.4 2.8-1 .9-.5 9.1-4.5 18.2-8.9s17.9-8.8 19.5-9.8c9-5.3 33.3-20.4 35-21.7 1.1-.9 6.7-5 12.4-9.2 15.2-11.2 30.8-24.8 46.6-40.8 16.1-16.2 18.5-19 27.9-30.6 3.7-4.7 7.7-9.6 8.8-10.8 4.4-5.3 23-33.5 29.8-45.1 7.4-12.8 17.7-33.6 22.5-45.1 1.4-3.6 3.2-7.9 4-9.5 2.7-6.2 10.9-30.4 13.6-40.5.7-2.5 1.4-5 1.6-5.5 1.6-4.9 7.9-35.1 9.3-44.5 2.2-14.8 2.7-19.1 3.7-31.5 1.5-18.8.8-66.4-1.1-78.5-.3-1.4-.7-4.9-1-7.8-.8-7.2-1.6-12.2-2.2-15.2-.3-1.3-.7-3.9-1-5.7-2.4-19-15.8-65-25.4-86.8-.4-1.1-1.9-4.5-3.1-7.5-4.5-10.6-16.9-34.6-24.8-47.9l-8-13.3 5-8c8.2-13.1 23.4-42.3 29.9-57.3 11.2-26 23.5-69.1 27.5-96 .4-2.2.8-5.1 1-6.5.3-1.4.7-5 1.1-8 .3-3 .8-6.3 1-7.4 2.5-13.4 2.5-79.7-.1-92-.2-1.2-.6-4.1-.9-6.6-.2-2.5-.9-7.4-1.5-11-.5-3.6-1.2-8.1-1.5-10-.3-1.9-1.7-8.7-3.1-15-1.4-6.3-2.8-12.6-3.1-14-2.4-11.4-14.9-48.9-19.4-58.5-.5-1.1-2.7-6.1-4.9-11.2-8-18.4-24.6-48.1-35.9-64.3-4.8-6.8-17.6-24.2-20.2-27.3-10-12.3-15.7-18.4-29.5-32.2-16.3-16.4-19.9-19.8-32-29.5-4.4-3.6-8.2-6.8-8.5-7.1-2.6-2.9-30.1-21.4-45.5-30.5-46.3-27.6-106.6-48.1-159-54-2.7-.3-6.1-.7-7.5-1-15.2-2.5-75.1-2.5-91 0-1.4.3-4.7.7-7.5 1-10.6 1.3-23.2 3.3-31 5-51.9 11.2-99.9 30.4-139.7 55.9l-5.6 3.6-13.4-8C620.5 50 592.6 36.2 576 29.7c-15.3-6-43.6-15.2-53-17.2-.8-.2-6.8-1.5-13.3-2.9-6.5-1.5-13.4-2.9-15.5-3.2-2-.3-4.4-.7-5.2-.9-1.6-.5-7.5-1.2-23.5-3-2.7-.3-6.6-.8-8.5-1.1-3.9-.5-60.6-1.4-61.2-.9zm56.7 75.9c2.2.3 6.5.8 9.5 1.1 8.3.9 23.7 3.4 31.3 5.1.9.2 2.6.6 3.7.8 16.9 3.8 44.6 12.7 57.4 18.6 2.5 1.1 4.7 2 5.1 2 .3 0 6.3 2.9 13.4 6.4 15.2 7.5 29.4 16 56.5 33.6 10.9 7.2 20.3 13 20.8 13 .4 0 10.1-6.1 21.4-13.5 11.3-7.4 20.9-13.5 21.4-13.5.4 0 1-.4 1.2-.8.5-1.4 16.7-10.6 30.8-17.7 25-12.6 54.9-23.1 80.3-28.5 2.3-.4 5.1-1 6.2-1.3 3.2-.8 20.6-3.6 25.5-4.1 14.2-1.6 22.7-2.1 42.5-2 23.6 0 33.1.5 49.5 3 5.8.9 11.4 1.8 12.5 1.9 22.7 3.3 65.6 17.4 89.2 29.4 3.5 1.7 6.5 3.1 6.8 3.1 1.2.1 26 15 35.5 21.4 34.9 23.6 69.3 58.1 92.6 92.6 23.1 34.4 39.2 70.4 48.9 109.3 1.9 7.8 3.6 15.3 3.9 16.7.2 1.4.9 5.2 1.5 8.5.5 3.3 1.3 8 1.6 10.5.3 2.5.8 5.6 1 7 2.7 15.7 2.7 69.1 0 82.8-.2 1.1-.6 4.3-1 7.3-.3 3-.8 6.5-1.1 7.9-.4 2.5-.5 3.2-2.5 13-.6 3-2 9.1-3.1 13.5s-2.1 8.7-2.3 9.5c-.9 3.9-6.7 21.6-8.9 27.3-1.4 3.5-2.6 6.7-2.6 7 0 1.2-5.1 12.5-12.1 26.7-7.9 16.2-14.4 27-32.4 54.4-7.4 11.4-13.5 21.1-13.5 21.5 0 .5 5.4 9.2 12 19.3 33.6 51.2 46.3 77.6 58.4 120.8 2 7.1 7.3 34 8.1 40.9.4 3 .8 6.2 1 7.2 1.9 9.9 2.7 54.3 1.2 71.4-4.2 48.2-19.3 97.1-43.5 140-20.4 36.3-52.4 73.9-85.4 100.2-13.1 10.5-33.6 24.2-47.8 32-6.1 3.4-18.2 9.6-19 9.8-.3.1-3.2 1.4-6.5 2.9-6.8 3.2-10.5 4.8-12 5.2-.5.2-5.3 2-10.5 4-16.5 6.4-41.5 13.2-58.5 15.9-1.6.3-4.1.7-5.5 1-3.1.6-9.3 1.4-23 3-10.3 1.2-55.9 1.3-64.5.1-2.2-.3-6.5-.8-9.5-1.1-6.5-.7-11.5-1.4-15-2.1-1.4-.2-3.6-.6-5-.9-23.7-4.4-54.5-13.3-67.5-19.5-1.1-.5-4.4-1.9-7.3-3-16.1-6.2-39.6-19.5-72.5-41-10.9-7.2-20.2-13-20.7-13s-11.2 6.7-23.7 14.8c-12.5 8.2-26.7 17.2-31.4 20-10.3 6.2-36.8 19.2-46.4 22.7-3.9 1.5-9.9 3.7-13.5 5-13.3 4.9-41.7 12.4-53.2 14-1.5.2-5.3.9-8.5 1.4-5.8 1.1-8 1.3-22.8 2.8-15.6 1.5-56 .9-70.5-1.1-1.4-.2-5-.7-8-1-17.5-2.3-47.2-9.4-64.3-15.5-40.1-14.2-73.8-33.3-108.7-61.5-10.7-8.6-37.1-35.4-46.4-46.9-25.2-31.5-45.8-68.1-57.1-101.3-1.5-4.3-3.1-8.8-3.6-9.9-1.7-4.2-9.1-32.1-10.3-39.5-.3-1.9-.8-4.6-1.1-6-.9-4.2-3.4-22.2-4.2-30.1-1.5-15.1-.7-65.9 1.2-72.9.2-.8.6-4 1-7 .3-3 .8-6.6 1.1-8 .3-1.4.7-3.4.9-4.5 2-12.1 1.8-11.1 5.4-25 10.9-42.8 24.5-71.4 58.7-123.6 6.8-10.4 12.4-19.4 12.4-19.9s-4.2-7.4-9.3-15.2C130.2 608.1 125 600 125 599.5c0-.2-1.2-2.1-2.6-4.2-4.4-6.4-18.9-36.4-23.7-49-5.7-15-12.7-37-14.1-44.3-.2-1.4-.7-3.2-1-4-.3-.8-.8-2.9-1-4.5-.2-1.7-.6-4.1-1-5.5-.9-3.6-2.7-14.8-4.1-25.5-2.7-20.4-2.7-70 0-84 .3-1.1.7-4 1-6.5.3-2.5.7-5.4.9-6.5.2-1.1.7-4 1.1-6.5 2.5-15.1 8.7-38.4 14.2-53.5 1.4-3.9 3.2-8.8 4-11 2.4-6.5 13.5-30.7 16-34.7 1.3-2.1 2.3-4 2.3-4.2 0-1 10.3-18.1 16.3-27.1 5.6-8.4 20.1-27.4 27.1-35.4 1.7-2 9.4-10 17.2-17.7 32.7-32.8 70.3-57.6 113.6-75.3 11.9-4.8 38.1-13.3 46.3-15.1 2.2-.5 7-1.5 10.6-2.3 3.6-.9 11.5-2.3 17.5-3.2 6-.9 11.9-1.8 13.1-2 1.2-.2 5.7-.7 10-1 4.3-.4 7.9-.9 8.1-1 .6-.5 51.5.3 55.7.9z"/></svg>