<?xml version="1.0" standalone="no"?>
<!DOCTYPE svg PUBLIC "-//W3C//DTD SVG 20010904//EN"
 "http://www.w3.org/TR/2001/REC-SVG-20010904/DTD/svg10.dtd">
<svg version="1.0" xmlns="http://www.w3.org/2000/svg"
 width="1300.000000pt" height="1300.000000pt" viewBox="0 0 1300.000000 1300.000000"
 preserveAspectRatio="xMidYMid meet">
<metadata>
Created by potrace 1.11, written by Peter Selinger 2001-2013
</metadata>
<g transform="translate(0.000000,1300.000000) scale(0.100000,-0.100000)"
fill="#000000" stroke="none">
<path d="M3958 12995 c-1 -1 -44 -6 -95 -9 -50 -4 -102 -9 -115 -11 -13 -2
-48 -6 -78 -9 -47 -6 -187 -28 -255 -41 -591 -113 -1144 -349 -1640 -699 -117
-83 -110 -78 -155 -115 -19 -16 -78 -64 -130 -107 -138 -114 -408 -385 -520
-524 -25 -30 -47 -57 -50 -60 -3 -3 -36 -45 -73 -95 -37 -49 -70 -94 -75 -100
-27 -34 -150 -227 -207 -324 -86 -148 -208 -399 -266 -546 -86 -221 -179 -525
-204 -666 -3 -19 -15 -79 -25 -134 -22 -121 -28 -155 -35 -220 -3 -27 -8 -59
-10 -70 -19 -96 -27 -645 -11 -815 24 -263 58 -462 119 -705 103 -406 285
-829 507 -1182 l40 -63 -67 -107 c-63 -103 -214 -391 -260 -498 -68 -159 -94
-229 -154 -410 -32 -96 -94 -329 -104 -386 -3 -19 -8 -41 -10 -49 -2 -8 -7
-31 -10 -50 -3 -19 -8 -42 -10 -50 -2 -8 -7 -35 -10 -60 -3 -25 -8 -56 -10
-70 -2 -14 -7 -50 -10 -80 -4 -30 -9 -63 -11 -73 -25 -138 -25 -746 1 -922 2
-16 7 -52 10 -80 35 -311 148 -739 280 -1060 52 -128 201 -425 270 -540 207
-342 372 -552 655 -835 166 -166 268 -257 395 -352 6 -4 24 -18 40 -31 45 -36
189 -136 283 -196 405 -258 902 -461 1357 -556 44 -9 89 -19 100 -21 22 -5
135 -24 175 -29 14 -2 52 -7 85 -10 33 -4 67 -8 75 -10 95 -25 772 -26 907 -1
15 3 61 9 163 21 241 28 679 146 950 256 30 12 64 25 75 30 46 18 382 182 410
200 17 10 79 48 138 84 l108 64 105 -65 c133 -82 319 -180 454 -239 58 -25
114 -50 125 -55 11 -5 45 -19 75 -30 30 -12 64 -26 75 -30 97 -41 448 -142
565 -164 14 -2 45 -9 70 -14 25 -6 63 -13 85 -16 22 -3 53 -9 68 -12 32 -7 45
-8 132 -19 33 -3 71 -8 85 -11 156 -25 787 -25 915 1 11 3 45 7 76 10 31 3 96
12 145 20 117 21 117 21 204 40 41 9 86 18 100 21 21 4 67 16 115 30 6 2 26 7
45 13 122 33 355 113 428 146 29 14 57 25 62 25 6 0 18 4 28 10 9 5 91 45 182
89 91 44 179 88 195 98 90 53 333 204 350 217 11 9 67 50 124 92 152 112 308
248 466 408 161 162 185 190 279 306 37 47 77 96 88 108 44 53 230 335 298
451 74 128 177 336 225 451 14 36 32 79 40 95 27 62 109 304 136 405 7 25 14
50 16 55 16 49 79 351 93 445 22 148 27 191 37 315 15 188 8 664 -11 785 -3
14 -7 49 -10 78 -8 72 -16 122 -22 152 -3 13 -7 39 -10 57 -24 190 -158 650
-254 868 -4 11 -19 45 -31 75 -45 106 -169 346 -248 479 l-80 133 50 80 c82
131 234 423 299 573 112 260 235 691 275 960 4 22 8 51 10 65 3 14 7 50 11 80
3 30 8 63 10 74 25 134 25 797 -1 920 -2 12 -6 41 -9 66 -2 25 -9 74 -15 110
-5 36 -12 81 -15 100 -3 19 -17 87 -31 150 -14 63 -28 126 -31 140 -24 114
-149 489 -194 585 -5 11 -27 61 -49 112 -80 184 -246 481 -359 643 -48 68
-176 242 -202 273 -100 123 -157 184 -295 322 -163 164 -199 198 -320 295 -44
36 -82 68 -85 71 -26 29 -301 214 -455 305 -463 276 -1066 481 -1590 540 -27
3 -61 7 -75 10 -152 25 -751 25 -910 0 -14 -3 -47 -7 -75 -10 -106 -13 -232
-33 -310 -50 -519 -112 -999 -304 -1397 -559 l-56 -36 -134 80 c-163 99 -442
237 -608 302 -153 60 -436 152 -530 172 -8 2 -68 15 -133 29 -65 15 -134 29
-155 32 -20 3 -44 7 -52 9 -16 5 -75 12 -235 30 -27 3 -66 8 -85 11 -39 5
-606 14 -612 9z m567 -759 c22 -3 65 -8 95 -11 83 -9 237 -34 313 -51 9 -2 26
-6 37 -8 169 -38 446 -127 574 -186 25 -11 47 -20 51 -20 3 0 63 -29 134 -64
152 -75 294 -160 565 -336 109 -72 203 -130 208 -130 4 0 101 61 214 135 113
74 209 135 214 135 4 0 10 4 12 8 5 14 167 106 308 177 250 126 549 231 803
285 23 4 51 10 62 13 32 8 206 36 255 41 142 16 227 21 425 20 236 0 331 -5
495 -30 58 -9 114 -18 125 -19 227 -33 656 -174 892 -294 35 -17 65 -31 68
-31 12 -1 260 -150 355 -214 349 -236 693 -581 926 -926 231 -344 392 -704
489 -1093 19 -78 36 -153 39 -167 2 -14 9 -52 15 -85 5 -33 13 -80 16 -105 3
-25 8 -56 10 -70 27 -157 27 -691 0 -828 -2 -11 -6 -43 -10 -73 -3 -30 -8 -65
-11 -79 -4 -25 -5 -32 -25 -130 -6 -30 -20 -91 -31 -135 -11 -44 -21 -87 -23
-95 -9 -39 -67 -216 -89 -273 -14 -35 -26 -67 -26 -70 0 -12 -51 -125 -121
-267 -79 -162 -144 -270 -324 -544 -74 -114 -135 -211 -135 -215 0 -5 54 -92
120 -193 336 -512 463 -776 584 -1208 20 -71 73 -340 81 -409 4 -30 8 -62 10
-72 19 -99 27 -543 12 -714 -42 -482 -193 -971 -435 -1400 -204 -363 -524
-739 -854 -1002 -131 -105 -336 -242 -478 -320 -61 -34 -182 -96 -190 -98 -3
-1 -32 -14 -65 -29 -68 -32 -105 -48 -120 -52 -5 -2 -53 -20 -105 -40 -165
-64 -415 -132 -585 -159 -16 -3 -41 -7 -55 -10 -31 -6 -93 -14 -230 -30 -103
-12 -559 -13 -645 -1 -22 3 -65 8 -95 11 -65 7 -115 14 -150 21 -14 2 -36 6
-50 9 -237 44 -545 133 -675 195 -11 5 -44 19 -73 30 -161 62 -396 195 -725
410 -109 72 -202 130 -207 130 -5 0 -112 -67 -237 -148 -125 -82 -267 -172
-314 -200 -103 -62 -368 -192 -464 -227 -39 -15 -99 -37 -135 -50 -133 -49
-417 -124 -532 -140 -15 -2 -53 -9 -85 -14 -58 -11 -80 -13 -228 -28 -156 -15
-560 -9 -705 11 -14 2 -50 7 -80 10 -175 23 -472 94 -643 155 -401 142 -738
333 -1087 615 -107 86 -371 354 -464 469 -252 315 -458 681 -571 1013 -15 43
-31 88 -36 99 -17 42 -91 321 -103 395 -3 19 -8 46 -11 60 -9 42 -34 222 -42
301 -15 151 -7 659 12 729 2 8 6 40 10 70 3 30 8 66 11 80 3 14 7 34 9 45 20
121 18 111 54 250 109 428 245 714 587 1236 68 104 124 194 124 199 0 5 -42
74 -93 152 -175 267 -227 348 -227 353 0 2 -12 21 -26 42 -44 64 -189 364
-237 490 -57 150 -127 370 -141 443 -2 14 -7 32 -10 40 -3 8 -8 29 -10 45 -2
17 -6 41 -10 55 -9 36 -27 148 -41 255 -27 204 -27 700 0 840 3 11 7 40 10 65
3 25 7 54 9 65 2 11 7 40 11 65 25 151 87 384 142 535 14 39 32 88 40 110 24
65 135 307 160 347 13 21 23 40 23 42 0 10 103 181 163 271 56 84 201 274 271
354 17 20 94 100 172 177 327 328 703 576 1136 753 119 48 381 133 463 151 22
5 70 15 106 23 36 9 115 23 175 32 60 9 119 18 131 20 12 2 57 7 100 10 43 4
79 9 81 10 6 5 515 -3 557 -9z"/>
</g>
</svg>
